<svg xmlns="http://www.w3.org/2000/svg" width="200" height="200" viewBox="0 0 200 200"><g fill="none" fill-rule="evenodd"><circle cx="100" cy="100" r="100" fill="#343D46"/><path fill="#FFF" fill-rule="nonzero" d="M120.558 134.108l-4.701-16.792c-.694-2.477-3.364-4.5-5.938-4.5H90.852c-2.573 0-5.243 2.028-5.937 4.5l-4.702 16.792c-.694 2.477-.992 6.585-.666 9.136l.014.12c.326 2.55 2.697 4.636 5.266 4.636h30.721c2.57 0 5.023-2.073 5.455-4.61l.028-.174c.436-2.532.22-6.631-.473-9.108zm-20.221 2.178a5.88 5.88 0 0 1-5.878-5.878 5.88 5.88 0 0 1 5.878-5.878 5.877 5.877 0 1 1 0 11.755zm19.002-84.187h-11.815c.004-.087.027-.174.027-.266A3.836 3.836 0 0 0 103.72 48h-6.967a3.836 3.836 0 0 0-3.833 3.833c0 .092.018.174.028.266H81.329A4.333 4.333 0 0 0 77 56.43v.744c0 .537 10.726 51.19 10.726 51.19.129.625.68 1.07 1.314 1.07h22.587c.635 0 1.186-.445 1.315-1.07 0 0 10.726-50.653 10.726-51.19v-.745a4.33 4.33 0 0 0-4.33-4.329h.001zm-3.194 28.373c-6.204 3.86-15.919-1.53-16.13-1.64-7.615-3.41-13.02-.878-15.367.726l-3.81-18.13c.234.042.473.074.717.074h37.808c.16 0 .317-.032.473-.046l-3.69 19.016z"/></g></svg>